<svg xmlns="http://www.w3.org/2000/svg" height="800" width="1200" version="1.0" preserveAspectRatio="none" viewBox="-163.58865 -125.34 1417.7683 752.04"><path d="M1020.098 501.36c38.92.003 70.464-31.553 70.467-70.466l.025-360.363c0-38.913-31.537-70.461-70.457-70.464L70.493 0C31.574-.003.029 31.541.027 70.454L0 430.817c-.003 38.913 31.537 70.473 70.458 70.476z" fill="#295eac"/><path d="M80.459 486.22c-38.072-.003-65.01-26.206-65.008-63.353l.024-344.47c.003-37.134 26.945-63.337 65.017-63.334l929.644.065c38.067.003 65.006 26.21 65.003 63.343l-.023 344.47c0 37.148-26.946 63.347-65.013 63.344zm919.347-14.216c37.208.003 59.616-21.09 59.618-56.555l.023-329.473c0-35.466-22.402-56.557-59.61-56.56L90.78 29.352c-37.195-.002-59.61 21.086-59.613 56.551l-.024 329.473c-.002 35.466 22.41 56.561 59.607 56.564z" fill="#fff100"/><path d="M926.145 350.819c-45.673-.003-88.84-23.435-88.836-74.547.004-51.105 43.174-74.53 88.846-74.527 45.68.003 88.84 23.435 88.836 74.54 0 51.111-43.166 74.537-88.846 74.534zm-771.038-43.185l106.136.008 19.322 39.405 62.485.005-98.725-193.098-68.042-.005-93.965 193.084 54.816.004zm244.198-151.709l-48.074-.003-.014 191.13 48.075.003zM572.012 319.38l.005-76.665c-9.322-36.579-53.403-39.037-78.36-39.04-36.268-.001-73.865 6.117-79.195 49.505l46.877.003c1.331-8.25 3.366-21.657 26.663-21.655 11.977 0 32.564.798 32.563 16.506 0 7.985-8.978 10.384-16.304 11.179l-43.881 5.06c-29.615 3.456-51.578 17.562-51.58 45.25-.002 29.282 27.28 41.26 53.9 41.263 31.611.002 48.541-11.717 59.191-20.498.998 7.986 1.667 10.118 4.325 16.775l46.33.003zm258.395-67.323c.002-31.145-32.391-43.463-66.431-43.466-27.838-.002-40.604 15.697-46.504 22.618-11.783-15.172-23.243-22.623-48.456-22.624-30.773-.002-31.8 13.21-37.7 22.516h-.656l.002-20.758-47.786-.004-.01 136.728 49.755.003.006-81.36c0-15.444 6.882-24.191 28.488-23.76 20.981.406 21.63 12.854 21.629 24.834l-.006 80.29 51.715.004.006-80.026c.001-16.779 4.272-25.638 27.183-25.094 17.338.405 24.187 7.256 22.926 24.034l-.006 81.09 45.839.002zm95.746-18.91c-34.493-.002-40.892 25.033-40.893 43.128-.001 18.103 6.394 43.127 40.887 43.13 34.492.002 40.89-25.022 40.892-43.124.001-18.095-6.394-43.131-40.886-43.134zm-718.971-38.024l35.894 75.6-69.676-.006zm311.427 101.093c-.001 17.302-20.972 27.949-41.602 27.947-8.977 0-21.621-3.992-21.62-17.035.001-15.44 14.305-18.902 31.612-21.293 19.298-2.393 26.951-4.792 31.61-7.723zm513.98-100.01c0 12.645-9.461 19.996-20.038 19.996-10.622-.001-20.09-7.354-20.09-19.998.002-12.63 9.47-19.98 20.093-19.979 10.577 0 20.037 7.353 20.036 19.982zm-5.764 0c0-9.189-6.546-15.326-14.272-15.326-7.929 0-14.327 6.135-14.327 15.324 0 9.209 6.396 15.395 14.325 15.343v.053c7.725 0 14.274-6.185 14.274-15.393zm-5.017 10.74l-5.447-.001-4.97-9.042h-2.166v9.041h-4.603v-21.52l8.035.001c5.553 0 8.827 1.592 8.826 6.5 0 3.968-2.324 5.394-5.175 5.609zm-5.234-15.493c0-2.218-2.376-2.38-4.127-2.38l-3.221-.001v5.18h4.073c2.052 0 3.275-.415 3.275-2.799z" fill="#fff100"/></svg>